<?xml version="1.0" encoding="utf-8" standalone="no"?>
<!DOCTYPE svg PUBLIC "-//W3C//DTD SVG 1.1//EN"
  "http://www.w3.org/Graphics/SVG/1.1/DTD/svg11.dtd">
<svg xmlns:xlink="http://www.w3.org/1999/xlink" width="248.779895pt" height="284.6196pt" viewBox="0 0 248.779895 284.6196" xmlns="http://www.w3.org/2000/svg" version="1.1">
 <metadata>
  <rdf:RDF xmlns:dc="http://purl.org/dc/elements/1.1/" xmlns:cc="http://creativecommons.org/ns#" xmlns:rdf="http://www.w3.org/1999/02/22-rdf-syntax-ns#">
   <cc:Work>
    <dc:type rdf:resource="http://purl.org/dc/dcmitype/StillImage"/>
    <dc:date>2026-06-21T05:33:49.756694</dc:date>
    <dc:format>image/svg+xml</dc:format>
    <dc:creator>
     <cc:Agent>
      <dc:title>Matplotlib v3.11.0, https://matplotlib.org/</dc:title>
     </cc:Agent>
    </dc:creator>
   </cc:Work>
  </rdf:RDF>
 </metadata>
 <defs>
  <style type="text/css">*{stroke-linejoin: round; stroke-linecap: butt}</style>
 </defs>
 <g id="figure_1">
  <g id="patch_1">
   <path d="M 0 284.6196 
L 248.779895 284.6196 
L 248.779895 0 
L 0 0 
z
" style="fill: #ffffff"/>
  </g>
  <g id="axes_1">
   <g id="patch_2">
    <path d="M 50.727695 84.893258 
L 69.478086 84.893258 
L 69.478086 66.142866 
L 50.727695 66.142866 
z
" clip-path="url(#pd8a45f2123)" style="fill: #abb0bc; stroke: #ffffff; stroke-width: 1.6; stroke-linejoin: miter"/>
   </g>
   <g id="patch_3">
    <path d="M 71.487057 84.893258 
L 90.237448 84.893258 
L 90.237448 66.142866 
L 71.487057 66.142866 
z
" clip-path="url(#pd8a45f2123)" style="fill: #abb0bc; stroke: #ffffff; stroke-width: 1.6; stroke-linejoin: miter"/>
   </g>
   <g id="patch_4">
    <path d="M 92.246419 84.893258 
L 110.996811 84.893258 
L 110.996811 66.142866 
L 92.246419 66.142866 
z
" clip-path="url(#pd8a45f2123)" style="fill: #abb0bc; stroke: #ffffff; stroke-width: 1.6; stroke-linejoin: miter"/>
   </g>
   <g id="patch_5">
    <path d="M 113.005781 84.893258 
L 131.756173 84.893258 
L 131.756173 66.142866 
L 113.005781 66.142866 
z
" clip-path="url(#pd8a45f2123)" style="fill: #abb0bc; stroke: #ffffff; stroke-width: 1.6; stroke-linejoin: miter"/>
   </g>
   <g id="patch_6">
    <path d="M 50.727695 106.991934 
L 69.478086 106.991934 
L 69.478086 88.241542 
L 50.727695 88.241542 
z
" clip-path="url(#pd8a45f2123)" style="fill: #6b7280; stroke: #ffffff; stroke-width: 1.6; stroke-linejoin: miter"/>
   </g>
   <g id="patch_7">
    <path d="M 71.487057 106.991934 
L 90.237448 106.991934 
L 90.237448 88.241542 
L 71.487057 88.241542 
z
" clip-path="url(#pd8a45f2123)" style="fill: #6b7280; stroke: #ffffff; stroke-width: 1.6; stroke-linejoin: miter"/>
   </g>
   <g id="patch_8">
    <path d="M 92.246419 106.991934 
L 110.996811 106.991934 
L 110.996811 88.241542 
L 92.246419 88.241542 
z
" clip-path="url(#pd8a45f2123)" style="fill: #6b7280; stroke: #ffffff; stroke-width: 1.6; stroke-linejoin: miter"/>
   </g>
   <g id="patch_9">
    <path d="M 113.005781 106.991934 
L 131.756173 106.991934 
L 131.756173 88.241542 
L 113.005781 88.241542 
z
" clip-path="url(#pd8a45f2123)" style="fill: #6b7280; stroke: #ffffff; stroke-width: 1.6; stroke-linejoin: miter"/>
   </g>
   <g id="text_1">
    <text style="font-weight: 700; font-size: 8.4px; font-family: 'Helvetica', 'Arial', 'DejaVu Sans', sans-serif; text-anchor: end; fill: #3f4350" x="44.700783" y="77.95439" transform="rotate(-0 44.700783 77.95439)">A</text>
   </g>
   <g id="text_2">
    <text style="font-weight: 700; font-size: 8.4px; font-family: 'Helvetica', 'Arial', 'DejaVu Sans', sans-serif; text-anchor: end; fill: #3f4350" x="44.700783" y="100.053066" transform="rotate(-0 44.700783 100.053066)">B</text>
   </g>
   <g id="patch_10">
    <path d="M 80.862253 59.440739 
Q 80.862253 61.123165 80.862253 61.352146 
" style="fill: none; stroke: #c8862a; stroke-width: 1.3; stroke-linecap: round"/>
    <path d="M 82.262253 58.552146 
L 80.862253 61.352146 
L 79.462253 58.552146 
z
" style="fill: #c8862a; stroke: #c8862a; stroke-width: 1.3; stroke-linecap: round"/>
   </g>
   <g id="text_3">
    <text style="font-weight: 700; font-size: 6.8px; font-family: 'Helvetica', 'Arial', 'DejaVu Sans', sans-serif; text-anchor: middle; fill: #c8862a" x="80.862253" y="54.673201" transform="rotate(-0 80.862253 54.673201)">steep</text>
   </g>
   <g id="patch_11">
    <path d="M 101.621615 59.440739 
Q 101.621615 61.123165 101.621615 61.352146 
" style="fill: none; stroke: #9aa0ad; stroke-width: 1.3; stroke-linecap: round"/>
    <path d="M 103.021615 58.552146 
L 101.621615 61.352146 
L 100.221615 58.552146 
z
" style="fill: #9aa0ad; stroke: #9aa0ad; stroke-width: 1.3; stroke-linecap: round"/>
   </g>
   <g id="text_4">
    <text style="font-weight: 700; font-size: 6.8px; font-family: 'Helvetica', 'Arial', 'DejaVu Sans', sans-serif; text-anchor: middle; fill: #9aa0ad" x="101.621615" y="54.942545" transform="rotate(-0 101.621615 54.942545)">flat</text>
   </g>
   <g id="text_5">
    <text style="font-weight: 700; font-size: 7.4px; font-family: 'Helvetica', 'Arial', 'DejaVu Sans', sans-serif; text-anchor: middle; fill: #e07a5f" x="151.176221" y="60.197847" transform="rotate(-0 151.176221 60.197847)">concave</text>
   </g>
   <g id="text_6">
    <text style="font-weight: 700; font-size: 7.4px; font-family: 'Helvetica', 'Arial', 'DejaVu Sans', sans-serif; text-anchor: middle; fill: #3d405b" x="204.748768" y="60.197847" transform="rotate(-0 204.748768 60.197847)">linear</text>
   </g>
   <g id="text_7">
    <text style="font-weight: 700; font-size: 7px; font-family: 'Helvetica', 'Arial', 'DejaVu Sans', sans-serif; text-anchor: end; fill: #111111" x="44.700783" y="122.415344" transform="rotate(-0 44.700783 122.415344)">B-A</text>
   </g>
   <g id="patch_12">
    <path d="M 50.727695 192.038353 
L 69.478086 192.038353 
L 69.478086 173.287961 
L 50.727695 173.287961 
z
" clip-path="url(#pd8a45f2123)" style="fill: #abb0bc; stroke: #ffffff; stroke-width: 1.6; stroke-linejoin: miter"/>
   </g>
   <g id="patch_13">
    <path d="M 71.487057 192.038353 
L 90.237448 192.038353 
L 90.237448 173.287961 
L 71.487057 173.287961 
z
" clip-path="url(#pd8a45f2123)" style="fill: #abb0bc; stroke: #ffffff; stroke-width: 1.6; stroke-linejoin: miter"/>
   </g>
   <g id="patch_14">
    <path d="M 92.246419 192.038353 
L 110.996811 192.038353 
L 110.996811 173.287961 
L 92.246419 173.287961 
z
" clip-path="url(#pd8a45f2123)" style="fill: #abb0bc; stroke: #ffffff; stroke-width: 1.6; stroke-linejoin: miter"/>
   </g>
   <g id="patch_15">
    <path d="M 113.005781 192.038353 
L 131.756173 192.038353 
L 131.756173 173.287961 
L 113.005781 173.287961 
z
" clip-path="url(#pd8a45f2123)" style="fill: #abb0bc; stroke: #ffffff; stroke-width: 1.6; stroke-linejoin: miter"/>
   </g>
   <g id="patch_16">
    <path d="M 50.727695 214.137028 
L 69.478086 214.137028 
L 69.478086 195.386637 
L 50.727695 195.386637 
z
" clip-path="url(#pd8a45f2123)" style="fill: #6b7280; stroke: #ffffff; stroke-width: 1.6; stroke-linejoin: miter"/>
   </g>
   <g id="patch_17">
    <path d="M 71.487057 214.137028 
L 90.237448 214.137028 
L 90.237448 195.386637 
L 71.487057 195.386637 
z
" clip-path="url(#pd8a45f2123)" style="fill: #6b7280; stroke: #ffffff; stroke-width: 1.6; stroke-linejoin: miter"/>
   </g>
   <g id="patch_18">
    <path d="M 92.246419 214.137028 
L 110.996811 214.137028 
L 110.996811 195.386637 
L 92.246419 195.386637 
z
" clip-path="url(#pd8a45f2123)" style="fill: #6b7280; stroke: #ffffff; stroke-width: 1.6; stroke-linejoin: miter"/>
   </g>
   <g id="patch_19">
    <path d="M 113.005781 214.137028 
L 131.756173 214.137028 
L 131.756173 195.386637 
L 113.005781 195.386637 
z
" clip-path="url(#pd8a45f2123)" style="fill: #6b7280; stroke: #ffffff; stroke-width: 1.6; stroke-linejoin: miter"/>
   </g>
   <g id="text_8">
    <text style="font-weight: 700; font-size: 8.4px; font-family: 'Helvetica', 'Arial', 'DejaVu Sans', sans-serif; text-anchor: end; fill: #3f4350" x="44.700783" y="185.099485" transform="rotate(-0 44.700783 185.099485)">A</text>
   </g>
   <g id="text_9">
    <text style="font-weight: 700; font-size: 8.4px; font-family: 'Helvetica', 'Arial', 'DejaVu Sans', sans-serif; text-anchor: end; fill: #3f4350" x="44.700783" y="207.198161" transform="rotate(-0 44.700783 207.198161)">B</text>
   </g>
   <g id="patch_20">
    <path d="M 60.102891 166.585834 
Q 60.102891 168.26826 60.102891 168.497241 
" style="fill: none; stroke: #c8862a; stroke-width: 1.3; stroke-linecap: round"/>
    <path d="M 61.502891 165.697241 
L 60.102891 168.497241 
L 58.702891 165.697241 
z
" style="fill: #c8862a; stroke: #c8862a; stroke-width: 1.3; stroke-linecap: round"/>
   </g>
   <g id="text_10">
    <text style="font-weight: 700; font-size: 6.8px; font-family: 'Helvetica', 'Arial', 'DejaVu Sans', sans-serif; text-anchor: middle; fill: #c8862a" x="60.102891" y="161.818296" transform="rotate(-0 60.102891 161.818296)">steep</text>
   </g>
   <g id="patch_21">
    <path d="M 122.380977 166.585834 
Q 122.380977 168.26826 122.380977 168.497241 
" style="fill: none; stroke: #9aa0ad; stroke-width: 1.3; stroke-linecap: round"/>
    <path d="M 123.780977 165.697241 
L 122.380977 168.497241 
L 120.980977 165.697241 
z
" style="fill: #9aa0ad; stroke: #9aa0ad; stroke-width: 1.3; stroke-linecap: round"/>
   </g>
   <g id="text_11">
    <text style="font-weight: 700; font-size: 6.8px; font-family: 'Helvetica', 'Arial', 'DejaVu Sans', sans-serif; text-anchor: middle; fill: #9aa0ad" x="122.380977" y="162.08764" transform="rotate(-0 122.380977 162.08764)">flat</text>
   </g>
   <g id="text_12">
    <text style="font-weight: 700; font-size: 7.4px; font-family: 'Helvetica', 'Arial', 'DejaVu Sans', sans-serif; text-anchor: middle; fill: #e07a5f" x="151.176221" y="167.342941" transform="rotate(-0 151.176221 167.342941)">concave</text>
   </g>
   <g id="text_13">
    <text style="font-weight: 700; font-size: 7.4px; font-family: 'Helvetica', 'Arial', 'DejaVu Sans', sans-serif; text-anchor: middle; fill: #3d405b" x="204.748768" y="167.342941" transform="rotate(-0 204.748768 167.342941)">linear</text>
   </g>
   <g id="text_14">
    <text style="font-weight: 700; font-size: 7px; font-family: 'Helvetica', 'Arial', 'DejaVu Sans', sans-serif; text-anchor: end; fill: #111111" x="44.700783" y="229.560439" transform="rotate(-0 44.700783 229.560439)">B-A</text>
   </g>
   <g id="text_15">
    <text style="font-weight: 700; font-size: 13px; font-family: 'Helvetica', 'Arial', 'DejaVu Sans', sans-serif; text-anchor: middle; fill: #111111" x="124.389947" y="16.95" transform="rotate(-0 124.389947 16.95)">H2 · Steep-vs-flat</text>
   </g>
   <g id="text_16">
    <text style="font-weight: 700; font-size: 8.4px; font-family: 'Helvetica', 'Arial', 'DejaVu Sans', sans-serif; text-anchor: middle; fill: #ffffff" x="60.102891" y="77.95439" transform="rotate(-0 60.102891 77.95439)">2</text>
   </g>
   <g id="text_17">
    <text style="font-weight: 700; font-size: 8.4px; font-family: 'Helvetica', 'Arial', 'DejaVu Sans', sans-serif; text-anchor: middle; fill: #ffffff" x="80.862253" y="77.95439" transform="rotate(-0 80.862253 77.95439)">0</text>
   </g>
   <g id="text_18">
    <text style="font-weight: 700; font-size: 8.4px; font-family: 'Helvetica', 'Arial', 'DejaVu Sans', sans-serif; text-anchor: middle; fill: #ffffff" x="101.621615" y="77.95439" transform="rotate(-0 101.621615 77.95439)">5</text>
   </g>
   <g id="text_19">
    <text style="font-weight: 700; font-size: 8.4px; font-family: 'Helvetica', 'Arial', 'DejaVu Sans', sans-serif; text-anchor: middle; fill: #ffffff" x="122.380977" y="77.95439" transform="rotate(-0 122.380977 77.95439)">2</text>
   </g>
   <g id="text_20">
    <text style="font-weight: 700; font-size: 8.4px; font-family: 'Helvetica', 'Arial', 'DejaVu Sans', sans-serif; text-anchor: middle; fill: #ffffff" x="60.102891" y="100.053066" transform="rotate(-0 60.102891 100.053066)">2</text>
   </g>
   <g id="text_21">
    <text style="font-weight: 700; font-size: 8.4px; font-family: 'Helvetica', 'Arial', 'DejaVu Sans', sans-serif; text-anchor: middle; fill: #ffffff" x="80.862253" y="100.053066" transform="rotate(-0 80.862253 100.053066)">1</text>
   </g>
   <g id="text_22">
    <text style="font-weight: 700; font-size: 8.4px; font-family: 'Helvetica', 'Arial', 'DejaVu Sans', sans-serif; text-anchor: middle; fill: #ffffff" x="101.621615" y="100.053066" transform="rotate(-0 101.621615 100.053066)">4</text>
   </g>
   <g id="text_23">
    <text style="font-weight: 700; font-size: 8.4px; font-family: 'Helvetica', 'Arial', 'DejaVu Sans', sans-serif; text-anchor: middle; fill: #ffffff" x="122.380977" y="100.053066" transform="rotate(-0 122.380977 100.053066)">2</text>
   </g>
   <g id="text_24">
    <text style="font-size: 11px; font-family: 'Helvetica', 'Arial', 'DejaVu Sans', sans-serif; text-anchor: middle; fill: #999999" x="151.176221" y="78.708492" transform="rotate(-0 151.176221 78.708492)">8.3</text>
   </g>
   <g id="text_25">
    <text style="font-weight: 700; font-size: 12px; font-family: 'Helvetica', 'Arial', 'DejaVu Sans', sans-serif; text-anchor: middle; fill: #111111" x="151.176221" y="101.097207" transform="rotate(-0 151.176221 101.097207)">10.2</text>
   </g>
   <g id="text_26">
    <text style="font-size: 11px; font-family: 'Helvetica', 'Arial', 'DejaVu Sans', sans-serif; text-anchor: middle; fill: #999999" x="204.748768" y="78.708492" transform="rotate(-0 204.748768 78.708492)">9</text>
   </g>
   <g id="text_27">
    <text style="font-size: 11px; font-family: 'Helvetica', 'Arial', 'DejaVu Sans', sans-serif; text-anchor: middle; fill: #999999" x="204.748768" y="100.807168" transform="rotate(-0 204.748768 100.807168)">9</text>
   </g>
   <g id="text_28">
    <text style="font-weight: 700; font-size: 8.4px; font-family: 'Helvetica', 'Arial', 'DejaVu Sans', sans-serif; text-anchor: middle; fill: #ffffff" x="60.102891" y="185.099485" transform="rotate(-0 60.102891 185.099485)">0</text>
   </g>
   <g id="text_29">
    <text style="font-weight: 700; font-size: 8.4px; font-family: 'Helvetica', 'Arial', 'DejaVu Sans', sans-serif; text-anchor: middle; fill: #ffffff" x="80.862253" y="185.099485" transform="rotate(-0 80.862253 185.099485)">3</text>
   </g>
   <g id="text_30">
    <text style="font-weight: 700; font-size: 8.4px; font-family: 'Helvetica', 'Arial', 'DejaVu Sans', sans-serif; text-anchor: middle; fill: #ffffff" x="101.621615" y="185.099485" transform="rotate(-0 101.621615 185.099485)">3</text>
   </g>
   <g id="text_31">
    <text style="font-weight: 700; font-size: 8.4px; font-family: 'Helvetica', 'Arial', 'DejaVu Sans', sans-serif; text-anchor: middle; fill: #ffffff" x="122.380977" y="185.099485" transform="rotate(-0 122.380977 185.099485)">5</text>
   </g>
   <g id="text_32">
    <text style="font-weight: 700; font-size: 8.4px; font-family: 'Helvetica', 'Arial', 'DejaVu Sans', sans-serif; text-anchor: middle; fill: #ffffff" x="60.102891" y="207.198161" transform="rotate(-0 60.102891 207.198161)">1</text>
   </g>
   <g id="text_33">
    <text style="font-weight: 700; font-size: 8.4px; font-family: 'Helvetica', 'Arial', 'DejaVu Sans', sans-serif; text-anchor: middle; fill: #ffffff" x="80.862253" y="207.198161" transform="rotate(-0 80.862253 207.198161)">3</text>
   </g>
   <g id="text_34">
    <text style="font-weight: 700; font-size: 8.4px; font-family: 'Helvetica', 'Arial', 'DejaVu Sans', sans-serif; text-anchor: middle; fill: #ffffff" x="101.621615" y="207.198161" transform="rotate(-0 101.621615 207.198161)">3</text>
   </g>
   <g id="text_35">
    <text style="font-weight: 700; font-size: 8.4px; font-family: 'Helvetica', 'Arial', 'DejaVu Sans', sans-serif; text-anchor: middle; fill: #ffffff" x="122.380977" y="207.198161" transform="rotate(-0 122.380977 207.198161)">4</text>
   </g>
   <g id="text_36">
    <text style="font-size: 11px; font-family: 'Helvetica', 'Arial', 'DejaVu Sans', sans-serif; text-anchor: middle; fill: #999999" x="151.176221" y="185.853587" transform="rotate(-0 151.176221 185.853587)">10.3</text>
   </g>
   <g id="text_37">
    <text style="font-weight: 700; font-size: 12px; font-family: 'Helvetica', 'Arial', 'DejaVu Sans', sans-serif; text-anchor: middle; fill: #111111" x="151.176221" y="208.242301" transform="rotate(-0 151.176221 208.242301)">12.2</text>
   </g>
   <g id="text_38">
    <text style="font-size: 11px; font-family: 'Helvetica', 'Arial', 'DejaVu Sans', sans-serif; text-anchor: middle; fill: #999999" x="204.748768" y="185.853587" transform="rotate(-0 204.748768 185.853587)">11</text>
   </g>
   <g id="text_39">
    <text style="font-size: 11px; font-family: 'Helvetica', 'Arial', 'DejaVu Sans', sans-serif; text-anchor: middle; fill: #999999" x="204.748768" y="207.952262" transform="rotate(-0 204.748768 207.952262)">11</text>
   </g>
   <g id="patch_22">
    <path d="M 151.176221 130.095095 
C 155.438503 130.095095 159.526786 129.071985 162.540675 127.251094 
C 165.554563 125.430204 167.247985 122.960199 167.247985 120.385071 
C 167.247985 117.809942 165.554563 115.339937 162.540675 113.519047 
C 159.526786 111.698156 155.438503 110.675046 151.176221 110.675046 
C 146.913939 110.675046 142.825656 111.698156 139.811768 113.519047 
C 136.797879 115.339937 135.104457 117.809942 135.104457 120.385071 
C 135.104457 122.960199 136.797879 125.430204 139.811768 127.251094 
C 142.825656 129.071985 146.913939 130.095095 151.176221 130.095095 
L 151.176221 130.095095 
z
" clip-path="url(#pd8a45f2123)" style="fill: none; stroke: #e07a5f; stroke-width: 1.7; stroke-linejoin: miter"/>
   </g>
   <g id="patch_23">
    <path d="M 204.748768 130.095095 
C 209.01105 130.095095 213.099334 129.071985 216.113222 127.251094 
C 219.12711 125.430204 220.820533 122.960199 220.820533 120.385071 
C 220.820533 117.809942 219.12711 115.339937 216.113222 113.519047 
C 213.099334 111.698156 209.01105 110.675046 204.748768 110.675046 
C 200.486487 110.675046 196.398203 111.698156 193.384315 113.519047 
C 190.370427 115.339937 188.677004 117.809942 188.677004 120.385071 
C 188.677004 122.960199 190.370427 125.430204 193.384315 127.251094 
C 196.398203 129.071985 200.486487 130.095095 204.748768 130.095095 
L 204.748768 130.095095 
z
" clip-path="url(#pd8a45f2123)" style="fill: none; stroke: #3d405b; stroke-width: 1.7; stroke-linejoin: miter"/>
   </g>
   <g id="patch_24">
    <path d="M 151.176221 237.240189 
C 155.438503 237.240189 159.526786 236.21708 162.540675 234.396189 
C 165.554563 232.575298 167.247985 230.105294 167.247985 227.530165 
C 167.247985 224.955037 165.554563 222.485032 162.540675 220.664141 
C 159.526786 218.84325 155.438503 217.820141 151.176221 217.820141 
C 146.913939 217.820141 142.825656 218.84325 139.811768 220.664141 
C 136.797879 222.485032 135.104457 224.955037 135.104457 227.530165 
C 135.104457 230.105294 136.797879 232.575298 139.811768 234.396189 
C 142.825656 236.21708 146.913939 237.240189 151.176221 237.240189 
L 151.176221 237.240189 
z
" clip-path="url(#pd8a45f2123)" style="fill: none; stroke: #e07a5f; stroke-width: 1.7; stroke-linejoin: miter"/>
   </g>
   <g id="patch_25">
    <path d="M 204.748768 237.240189 
C 209.01105 237.240189 213.099334 236.21708 216.113222 234.396189 
C 219.12711 232.575298 220.820533 230.105294 220.820533 227.530165 
C 220.820533 224.955037 219.12711 222.485032 216.113222 220.664141 
C 213.099334 218.84325 209.01105 217.820141 204.748768 217.820141 
C 200.486487 217.820141 196.398203 218.84325 193.384315 220.664141 
C 190.370427 222.485032 188.677004 224.955037 188.677004 227.530165 
C 188.677004 230.105294 190.370427 232.575298 193.384315 234.396189 
C 196.398203 236.21708 200.486487 237.240189 204.748768 237.240189 
L 204.748768 237.240189 
z
" clip-path="url(#pd8a45f2123)" style="fill: none; stroke: #3d405b; stroke-width: 1.7; stroke-linejoin: miter"/>
   </g>
   <g id="text_40">
    <g id="patch_26">
     <path d="M 87.42489 96.379687 
C 88.837252 96.379687 90.191957 95.818549 91.190648 94.819859 
C 92.189338 93.821168 92.750476 92.466463 92.750476 91.054101 
C 92.750476 89.641739 92.189338 88.287034 91.190648 87.288343 
C 90.191957 86.289652 88.837252 85.728515 87.42489 85.728515 
C 86.012528 85.728515 84.657822 86.289652 83.659132 87.288343 
C 82.660441 88.287034 82.099304 89.641739 82.099304 91.054101 
C 82.099304 92.466463 82.660441 93.821168 83.659132 94.819859 
C 84.657822 95.818549 86.012528 96.379687 87.42489 96.379687 
z
" style="fill: #ffffff; stroke: #c8862a; stroke-width: 1.3; stroke-linejoin: miter"/>
    </g>
    <text style="font-weight: 700; font-size: 7.5px; font-family: 'Helvetica', 'Arial', 'DejaVu Sans', sans-serif; text-anchor: middle; fill: #c8862a" x="87.42489" y="93.229394" transform="rotate(-0 87.42489 93.229394)">+1</text>
   </g>
   <g id="text_41">
    <g id="patch_27">
     <path d="M 108.184252 95.553808 
C 109.377588 95.553808 110.522209 95.07969 111.366025 94.235874 
C 112.209841 93.392058 112.683959 92.247437 112.683959 91.054101 
C 112.683959 89.860765 112.209841 88.716144 111.366025 87.872327 
C 110.522209 87.028511 109.377588 86.554394 108.184252 86.554394 
C 106.990916 86.554394 105.846295 87.028511 105.002478 87.872327 
C 104.158662 88.716144 103.684545 89.860765 103.684545 91.054101 
C 103.684545 92.247437 104.158662 93.392058 105.002478 94.235874 
C 105.846295 95.07969 106.990916 95.553808 108.184252 95.553808 
z
" style="fill: #ffffff; stroke: #9aa0ad; stroke-width: 1.3; stroke-linejoin: miter"/>
    </g>
    <text style="font-weight: 700; font-size: 7.5px; font-family: 'Helvetica', 'Arial', 'DejaVu Sans', sans-serif; text-anchor: middle; fill: #9aa0ad" x="108.184252" y="93.229394" transform="rotate(-0 108.184252 93.229394)">-1</text>
   </g>
   <g id="text_42">
    <text style="font-weight: 700; font-size: 11.5px; font-family: 'Helvetica', 'Arial', 'DejaVu Sans', sans-serif; text-anchor: middle; fill: #e07a5f" x="151.176221" y="123.72052" transform="rotate(-0 151.176221 123.72052)">+1.9</text>
   </g>
   <g id="text_43">
    <text style="font-weight: 700; font-size: 11.5px; font-family: 'Helvetica', 'Arial', 'DejaVu Sans', sans-serif; text-anchor: middle; fill: #3d405b" x="204.748768" y="123.72052" transform="rotate(-0 204.748768 123.72052)">0</text>
   </g>
   <g id="text_44">
    <g id="patch_28">
     <path d="M 66.665528 203.524782 
C 68.077889 203.524782 69.432595 202.963644 70.431286 201.964954 
C 71.429976 200.966263 71.991114 199.611557 71.991114 198.199196 
C 71.991114 196.786834 71.429976 195.432128 70.431286 194.433438 
C 69.432595 193.434747 68.077889 192.87361 66.665528 192.87361 
C 65.253166 192.87361 63.89846 193.434747 62.89977 194.433438 
C 61.901079 195.432128 61.339942 196.786834 61.339942 198.199196 
C 61.339942 199.611557 61.901079 200.966263 62.89977 201.964954 
C 63.89846 202.963644 65.253166 203.524782 66.665528 203.524782 
z
" style="fill: #ffffff; stroke: #c8862a; stroke-width: 1.3; stroke-linejoin: miter"/>
    </g>
    <text style="font-weight: 700; font-size: 7.5px; font-family: 'Helvetica', 'Arial', 'DejaVu Sans', sans-serif; text-anchor: middle; fill: #c8862a" x="66.665528" y="200.374489" transform="rotate(-0 66.665528 200.374489)">+1</text>
   </g>
   <g id="text_45">
    <g id="patch_29">
     <path d="M 128.943614 202.698903 
C 130.13695 202.698903 131.281571 202.224785 132.125387 201.380969 
C 132.969203 200.537153 133.443321 199.392532 133.443321 198.199196 
C 133.443321 197.005859 132.969203 195.861238 132.125387 195.017422 
C 131.281571 194.173606 130.13695 193.699489 128.943614 193.699489 
C 127.750278 193.699489 126.605657 194.173606 125.761841 195.017422 
C 124.918024 195.861238 124.443907 197.005859 124.443907 198.199196 
C 124.443907 199.392532 124.918024 200.537153 125.761841 201.380969 
C 126.605657 202.224785 127.750278 202.698903 128.943614 202.698903 
z
" style="fill: #ffffff; stroke: #9aa0ad; stroke-width: 1.3; stroke-linejoin: miter"/>
    </g>
    <text style="font-weight: 700; font-size: 7.5px; font-family: 'Helvetica', 'Arial', 'DejaVu Sans', sans-serif; text-anchor: middle; fill: #9aa0ad" x="128.943614" y="200.374489" transform="rotate(-0 128.943614 200.374489)">-1</text>
   </g>
   <g id="text_46">
    <text style="font-weight: 700; font-size: 11.5px; font-family: 'Helvetica', 'Arial', 'DejaVu Sans', sans-serif; text-anchor: middle; fill: #e07a5f" x="151.176221" y="230.865614" transform="rotate(-0 151.176221 230.865614)">+1.9</text>
   </g>
   <g id="text_47">
    <text style="font-weight: 700; font-size: 11.5px; font-family: 'Helvetica', 'Arial', 'DejaVu Sans', sans-serif; text-anchor: middle; fill: #3d405b" x="204.748768" y="230.865614" transform="rotate(-0 204.748768 230.865614)">0</text>
   </g>
  </g>
 </g>
 <defs>
  <clipPath id="pd8a45f2123">
   <rect x="7.2" y="22.95" width="234.379895" height="254.4696"/>
  </clipPath>
 </defs>
</svg>
