<?xml version="1.0" encoding="utf-8" standalone="no"?>
<!DOCTYPE svg PUBLIC "-//W3C//DTD SVG 1.1//EN"
  "http://www.w3.org/Graphics/SVG/1.1/DTD/svg11.dtd">
<svg xmlns:xlink="http://www.w3.org/1999/xlink" width="248.779895pt" height="285.593889pt" viewBox="0 0 248.779895 285.593889" xmlns="http://www.w3.org/2000/svg" version="1.1">
 <metadata>
  <rdf:RDF xmlns:dc="http://purl.org/dc/elements/1.1/" xmlns:cc="http://creativecommons.org/ns#" xmlns:rdf="http://www.w3.org/1999/02/22-rdf-syntax-ns#">
   <cc:Work>
    <dc:type rdf:resource="http://purl.org/dc/dcmitype/StillImage"/>
    <dc:date>2026-06-24T19:14:11.476491</dc:date>
    <dc:format>image/svg+xml</dc:format>
    <dc:creator>
     <cc:Agent>
      <dc:title>Matplotlib v3.10.8, https://matplotlib.org/</dc:title>
     </cc:Agent>
    </dc:creator>
   </cc:Work>
  </rdf:RDF>
 </metadata>
 <defs>
  <style type="text/css">*{stroke-linejoin: round; stroke-linecap: butt}</style>
 </defs>
 <g id="figure_1">
  <g id="patch_1">
   <path d="M 0 285.593889 
L 248.779895 285.593889 
L 248.779895 0 
L 0 0 
z
" style="fill: #ffffff"/>
  </g>
  <g id="axes_1">
   <g id="patch_2">
    <path d="M 50.727695 54.058847 
L 69.478086 54.058847 
L 69.478086 35.308455 
L 50.727695 35.308455 
z
" clip-path="url(#pbe70848044)" style="fill: #abb0bc; stroke: #ffffff; stroke-width: 1.6; stroke-linejoin: miter"/>
   </g>
   <g id="patch_3">
    <path d="M 71.487057 54.058847 
L 90.237448 54.058847 
L 90.237448 35.308455 
L 71.487057 35.308455 
z
" clip-path="url(#pbe70848044)" style="fill: #abb0bc; stroke: #ffffff; stroke-width: 1.6; stroke-linejoin: miter"/>
   </g>
   <g id="patch_4">
    <path d="M 92.246419 54.058847 
L 110.996811 54.058847 
L 110.996811 35.308455 
L 92.246419 35.308455 
z
" clip-path="url(#pbe70848044)" style="fill: #abb0bc; stroke: #ffffff; stroke-width: 1.6; stroke-linejoin: miter"/>
   </g>
   <g id="patch_5">
    <path d="M 113.005781 54.058847 
L 131.756173 54.058847 
L 131.756173 35.308455 
L 113.005781 35.308455 
z
" clip-path="url(#pbe70848044)" style="fill: #abb0bc; stroke: #ffffff; stroke-width: 1.6; stroke-linejoin: miter"/>
   </g>
   <g id="patch_6">
    <path d="M 50.727695 76.157523 
L 69.478086 76.157523 
L 69.478086 57.407131 
L 50.727695 57.407131 
z
" clip-path="url(#pbe70848044)" style="fill: #6b7280; stroke: #ffffff; stroke-width: 1.6; stroke-linejoin: miter"/>
   </g>
   <g id="patch_7">
    <path d="M 71.487057 76.157523 
L 90.237448 76.157523 
L 90.237448 57.407131 
L 71.487057 57.407131 
z
" clip-path="url(#pbe70848044)" style="fill: #6b7280; stroke: #ffffff; stroke-width: 1.6; stroke-linejoin: miter"/>
   </g>
   <g id="patch_8">
    <path d="M 92.246419 76.157523 
L 110.996811 76.157523 
L 110.996811 57.407131 
L 92.246419 57.407131 
z
" clip-path="url(#pbe70848044)" style="fill: #6b7280; stroke: #ffffff; stroke-width: 1.6; stroke-linejoin: miter"/>
   </g>
   <g id="patch_9">
    <path d="M 113.005781 76.157523 
L 131.756173 76.157523 
L 131.756173 57.407131 
L 113.005781 57.407131 
z
" clip-path="url(#pbe70848044)" style="fill: #6b7280; stroke: #ffffff; stroke-width: 1.6; stroke-linejoin: miter"/>
   </g>
   <g id="text_1">
    <text style="font-weight: 700; font-size: 9px; font-family: 'Helvetica', 'Arial', 'DejaVu Sans', sans-serif; text-anchor: end; fill: #3f4350" x="44.700783" y="46.973729" transform="rotate(-0 44.700783 46.973729)">A</text>
   </g>
   <g id="text_2">
    <text style="font-weight: 700; font-size: 9px; font-family: 'Helvetica', 'Arial', 'DejaVu Sans', sans-serif; text-anchor: end; fill: #3f4350" x="44.700783" y="69.072405" transform="rotate(-0 44.700783 69.072405)">B</text>
   </g>
   <g id="text_3">
    <text style="font-weight: 700; font-size: 9px; font-family: 'Helvetica', 'Arial', 'DejaVu Sans', sans-serif; text-anchor: middle; fill: #f2cc8f" x="151.176221" y="28.74492" transform="rotate(-0 151.176221 28.74492)">concave</text>
   </g>
   <g id="text_4">
    <text style="font-weight: 700; font-size: 9px; font-family: 'Helvetica', 'Arial', 'DejaVu Sans', sans-serif; text-anchor: middle; fill: #999999" x="204.748768" y="28.74492" transform="rotate(-0 204.748768 28.74492)">WADD</text>
   </g>
   <g id="text_5">
    <text style="font-weight: 700; font-size: 9px; font-family: 'Helvetica', 'Arial', 'DejaVu Sans', sans-serif; text-anchor: end; fill: #111111" x="44.700783" y="91.840738" transform="rotate(-0 44.700783 91.840738)">B-A</text>
   </g>
   <g id="patch_10">
    <path d="M 50.727695 142.788379 
L 69.478086 142.788379 
L 69.478086 124.037987 
L 50.727695 124.037987 
z
" clip-path="url(#pbe70848044)" style="fill: #abb0bc; stroke: #ffffff; stroke-width: 1.6; stroke-linejoin: miter"/>
   </g>
   <g id="patch_11">
    <path d="M 71.487057 142.788379 
L 90.237448 142.788379 
L 90.237448 124.037987 
L 71.487057 124.037987 
z
" clip-path="url(#pbe70848044)" style="fill: #abb0bc; stroke: #ffffff; stroke-width: 1.6; stroke-linejoin: miter"/>
   </g>
   <g id="patch_12">
    <path d="M 92.246419 142.788379 
L 110.996811 142.788379 
L 110.996811 124.037987 
L 92.246419 124.037987 
z
" clip-path="url(#pbe70848044)" style="fill: #abb0bc; stroke: #ffffff; stroke-width: 1.6; stroke-linejoin: miter"/>
   </g>
   <g id="patch_13">
    <path d="M 113.005781 142.788379 
L 131.756173 142.788379 
L 131.756173 124.037987 
L 113.005781 124.037987 
z
" clip-path="url(#pbe70848044)" style="fill: #abb0bc; stroke: #ffffff; stroke-width: 1.6; stroke-linejoin: miter"/>
   </g>
   <g id="patch_14">
    <path d="M 50.727695 164.887054 
L 69.478086 164.887054 
L 69.478086 146.136663 
L 50.727695 146.136663 
z
" clip-path="url(#pbe70848044)" style="fill: #6b7280; stroke: #ffffff; stroke-width: 1.6; stroke-linejoin: miter"/>
   </g>
   <g id="patch_15">
    <path d="M 71.487057 164.887054 
L 90.237448 164.887054 
L 90.237448 146.136663 
L 71.487057 146.136663 
z
" clip-path="url(#pbe70848044)" style="fill: #6b7280; stroke: #ffffff; stroke-width: 1.6; stroke-linejoin: miter"/>
   </g>
   <g id="patch_16">
    <path d="M 92.246419 164.887054 
L 110.996811 164.887054 
L 110.996811 146.136663 
L 92.246419 146.136663 
z
" clip-path="url(#pbe70848044)" style="fill: #6b7280; stroke: #ffffff; stroke-width: 1.6; stroke-linejoin: miter"/>
   </g>
   <g id="patch_17">
    <path d="M 113.005781 164.887054 
L 131.756173 164.887054 
L 131.756173 146.136663 
L 113.005781 146.136663 
z
" clip-path="url(#pbe70848044)" style="fill: #6b7280; stroke: #ffffff; stroke-width: 1.6; stroke-linejoin: miter"/>
   </g>
   <g id="text_6">
    <text style="font-weight: 700; font-size: 9px; font-family: 'Helvetica', 'Arial', 'DejaVu Sans', sans-serif; text-anchor: end; fill: #3f4350" x="44.700783" y="135.703261" transform="rotate(-0 44.700783 135.703261)">A</text>
   </g>
   <g id="text_7">
    <text style="font-weight: 700; font-size: 9px; font-family: 'Helvetica', 'Arial', 'DejaVu Sans', sans-serif; text-anchor: end; fill: #3f4350" x="44.700783" y="157.801937" transform="rotate(-0 44.700783 157.801937)">B</text>
   </g>
   <g id="text_8">
    <text style="font-weight: 700; font-size: 9px; font-family: 'Helvetica', 'Arial', 'DejaVu Sans', sans-serif; text-anchor: middle; fill: #f2cc8f" x="151.176221" y="117.474452" transform="rotate(-0 151.176221 117.474452)">concave</text>
   </g>
   <g id="text_9">
    <text style="font-weight: 700; font-size: 9px; font-family: 'Helvetica', 'Arial', 'DejaVu Sans', sans-serif; text-anchor: middle; fill: #3d405b" x="204.748768" y="117.359139" transform="rotate(-0 204.748768 117.359139)">Tallying</text>
   </g>
   <g id="text_10">
    <text style="font-weight: 700; font-size: 9px; font-family: 'Helvetica', 'Arial', 'DejaVu Sans', sans-serif; text-anchor: end; fill: #111111" x="44.700783" y="180.570269" transform="rotate(-0 44.700783 180.570269)">B-A</text>
   </g>
   <g id="patch_18">
    <path d="M 50.727695 231.51791 
L 69.478086 231.51791 
L 69.478086 212.767519 
L 50.727695 212.767519 
z
" clip-path="url(#pbe70848044)" style="fill: #abb0bc; stroke: #ffffff; stroke-width: 1.6; stroke-linejoin: miter"/>
   </g>
   <g id="patch_19">
    <path d="M 71.487057 231.51791 
L 90.237448 231.51791 
L 90.237448 212.767519 
L 71.487057 212.767519 
z
" clip-path="url(#pbe70848044)" style="fill: #abb0bc; stroke: #ffffff; stroke-width: 1.6; stroke-linejoin: miter"/>
   </g>
   <g id="patch_20">
    <path d="M 92.246419 231.51791 
L 110.996811 231.51791 
L 110.996811 212.767519 
L 92.246419 212.767519 
z
" clip-path="url(#pbe70848044)" style="fill: #abb0bc; stroke: #ffffff; stroke-width: 1.6; stroke-linejoin: miter"/>
   </g>
   <g id="patch_21">
    <path d="M 113.005781 231.51791 
L 131.756173 231.51791 
L 131.756173 212.767519 
L 113.005781 212.767519 
z
" clip-path="url(#pbe70848044)" style="fill: #abb0bc; stroke: #ffffff; stroke-width: 1.6; stroke-linejoin: miter"/>
   </g>
   <g id="patch_22">
    <path d="M 50.727695 253.616586 
L 69.478086 253.616586 
L 69.478086 234.866194 
L 50.727695 234.866194 
z
" clip-path="url(#pbe70848044)" style="fill: #6b7280; stroke: #ffffff; stroke-width: 1.6; stroke-linejoin: miter"/>
   </g>
   <g id="patch_23">
    <path d="M 71.487057 253.616586 
L 90.237448 253.616586 
L 90.237448 234.866194 
L 71.487057 234.866194 
z
" clip-path="url(#pbe70848044)" style="fill: #6b7280; stroke: #ffffff; stroke-width: 1.6; stroke-linejoin: miter"/>
   </g>
   <g id="patch_24">
    <path d="M 92.246419 253.616586 
L 110.996811 253.616586 
L 110.996811 234.866194 
L 92.246419 234.866194 
z
" clip-path="url(#pbe70848044)" style="fill: #6b7280; stroke: #ffffff; stroke-width: 1.6; stroke-linejoin: miter"/>
   </g>
   <g id="patch_25">
    <path d="M 113.005781 253.616586 
L 131.756173 253.616586 
L 131.756173 234.866194 
L 113.005781 234.866194 
z
" clip-path="url(#pbe70848044)" style="fill: #6b7280; stroke: #ffffff; stroke-width: 1.6; stroke-linejoin: miter"/>
   </g>
   <g id="text_11">
    <text style="font-weight: 700; font-size: 9px; font-family: 'Helvetica', 'Arial', 'DejaVu Sans', sans-serif; text-anchor: end; fill: #3f4350" x="44.700783" y="224.432792" transform="rotate(-0 44.700783 224.432792)">A</text>
   </g>
   <g id="text_12">
    <text style="font-weight: 700; font-size: 9px; font-family: 'Helvetica', 'Arial', 'DejaVu Sans', sans-serif; text-anchor: end; fill: #3f4350" x="44.700783" y="246.531468" transform="rotate(-0 44.700783 246.531468)">B</text>
   </g>
   <g id="text_13">
    <text style="font-weight: 700; font-size: 9px; font-family: 'Helvetica', 'Arial', 'DejaVu Sans', sans-serif; text-anchor: middle; fill: #f2cc8f" x="151.176221" y="206.203983" transform="rotate(-0 151.176221 206.203983)">concave</text>
   </g>
   <g id="text_14">
    <text style="font-weight: 700; font-size: 9px; font-family: 'Helvetica', 'Arial', 'DejaVu Sans', sans-serif; text-anchor: middle; fill: #81b29a" x="204.748768" y="206.203983" transform="rotate(-0 204.748768 206.203983)">TTB</text>
   </g>
   <g id="text_15">
    <text style="font-weight: 700; font-size: 9px; font-family: 'Helvetica', 'Arial', 'DejaVu Sans', sans-serif; text-anchor: end; fill: #111111" x="44.700783" y="269.299801" transform="rotate(-0 44.700783 269.299801)">B-A</text>
   </g>
   <g id="text_16">
    <text style="font-weight: 700; font-size: 14.95px; font-family: 'Helvetica', 'Arial', 'DejaVu Sans', sans-serif; text-anchor: middle; fill: #111111" x="124.389947" y="17.924289" transform="rotate(-0 124.389947 17.924289)">H1 · Model discrimination</text>
   </g>
   <g id="text_17">
    <text style="font-weight: 700; font-size: 11px; font-family: 'Helvetica', 'Arial', 'DejaVu Sans', sans-serif; text-anchor: middle; fill: #ffffff" x="60.102891" y="47.482636" transform="rotate(-0 60.102891 47.482636)">5</text>
   </g>
   <g id="text_18">
    <text style="font-weight: 700; font-size: 11px; font-family: 'Helvetica', 'Arial', 'DejaVu Sans', sans-serif; text-anchor: middle; fill: #ffffff" x="80.862253" y="47.482636" transform="rotate(-0 80.862253 47.482636)">5</text>
   </g>
   <g id="text_19">
    <text style="font-weight: 700; font-size: 11px; font-family: 'Helvetica', 'Arial', 'DejaVu Sans', sans-serif; text-anchor: middle; fill: #ffffff" x="101.621615" y="47.482636" transform="rotate(-0 101.621615 47.482636)">4</text>
   </g>
   <g id="text_20">
    <text style="font-weight: 700; font-size: 11px; font-family: 'Helvetica', 'Arial', 'DejaVu Sans', sans-serif; text-anchor: middle; fill: #ffffff" x="122.380977" y="47.482636" transform="rotate(-0 122.380977 47.482636)">0</text>
   </g>
   <g id="text_21">
    <text style="font-weight: 700; font-size: 11px; font-family: 'Helvetica', 'Arial', 'DejaVu Sans', sans-serif; text-anchor: middle; fill: #ffffff" x="60.102891" y="69.581311" transform="rotate(-0 60.102891 69.581311)">4</text>
   </g>
   <g id="text_22">
    <text style="font-weight: 700; font-size: 11px; font-family: 'Helvetica', 'Arial', 'DejaVu Sans', sans-serif; text-anchor: middle; fill: #ffffff" x="80.862253" y="69.581311" transform="rotate(-0 80.862253 69.581311)">4</text>
   </g>
   <g id="text_23">
    <text style="font-weight: 700; font-size: 11px; font-family: 'Helvetica', 'Arial', 'DejaVu Sans', sans-serif; text-anchor: middle; fill: #ffffff" x="101.621615" y="69.581311" transform="rotate(-0 101.621615 69.581311)">3</text>
   </g>
   <g id="text_24">
    <text style="font-weight: 700; font-size: 11px; font-family: 'Helvetica', 'Arial', 'DejaVu Sans', sans-serif; text-anchor: middle; fill: #ffffff" x="122.380977" y="69.581311" transform="rotate(-0 122.380977 69.581311)">2</text>
   </g>
   <g id="text_25">
    <text style="font-size: 11px; font-family: 'Helvetica', 'Arial', 'DejaVu Sans', sans-serif; text-anchor: middle; fill: #999999" x="151.176221" y="47.482636" transform="rotate(-0 151.176221 47.482636)">12.0</text>
   </g>
   <g id="text_26">
    <text style="font-weight: 700; font-size: 11px; font-family: 'Helvetica', 'Arial', 'DejaVu Sans', sans-serif; text-anchor: middle; fill: #111111" x="151.176221" y="69.581311" transform="rotate(-0 151.176221 69.581311)">14.5</text>
   </g>
   <g id="text_27">
    <text style="font-weight: 700; font-size: 11px; font-family: 'Helvetica', 'Arial', 'DejaVu Sans', sans-serif; text-anchor: middle; fill: #111111" x="204.748768" y="47.482636" transform="rotate(-0 204.748768 47.482636)">14</text>
   </g>
   <g id="text_28">
    <text style="font-size: 11px; font-family: 'Helvetica', 'Arial', 'DejaVu Sans', sans-serif; text-anchor: middle; fill: #999999" x="204.748768" y="69.581311" transform="rotate(-0 204.748768 69.581311)">13</text>
   </g>
   <g id="text_29">
    <text style="font-weight: 700; font-size: 11px; font-family: 'Helvetica', 'Arial', 'DejaVu Sans', sans-serif; text-anchor: middle; fill: #ffffff" x="60.102891" y="136.212167" transform="rotate(-0 60.102891 136.212167)">3</text>
   </g>
   <g id="text_30">
    <text style="font-weight: 700; font-size: 11px; font-family: 'Helvetica', 'Arial', 'DejaVu Sans', sans-serif; text-anchor: middle; fill: #ffffff" x="80.862253" y="136.212167" transform="rotate(-0 80.862253 136.212167)">3</text>
   </g>
   <g id="text_31">
    <text style="font-weight: 700; font-size: 11px; font-family: 'Helvetica', 'Arial', 'DejaVu Sans', sans-serif; text-anchor: middle; fill: #ffffff" x="101.621615" y="136.212167" transform="rotate(-0 101.621615 136.212167)">3</text>
   </g>
   <g id="text_32">
    <text style="font-weight: 700; font-size: 11px; font-family: 'Helvetica', 'Arial', 'DejaVu Sans', sans-serif; text-anchor: middle; fill: #ffffff" x="122.380977" y="136.212167" transform="rotate(-0 122.380977 136.212167)">0</text>
   </g>
   <g id="text_33">
    <text style="font-weight: 700; font-size: 11px; font-family: 'Helvetica', 'Arial', 'DejaVu Sans', sans-serif; text-anchor: middle; fill: #ffffff" x="60.102891" y="158.310843" transform="rotate(-0 60.102891 158.310843)">2</text>
   </g>
   <g id="text_34">
    <text style="font-weight: 700; font-size: 11px; font-family: 'Helvetica', 'Arial', 'DejaVu Sans', sans-serif; text-anchor: middle; fill: #ffffff" x="80.862253" y="158.310843" transform="rotate(-0 80.862253 158.310843)">2</text>
   </g>
   <g id="text_35">
    <text style="font-weight: 700; font-size: 11px; font-family: 'Helvetica', 'Arial', 'DejaVu Sans', sans-serif; text-anchor: middle; fill: #ffffff" x="101.621615" y="158.310843" transform="rotate(-0 101.621615 158.310843)">2</text>
   </g>
   <g id="text_36">
    <text style="font-weight: 700; font-size: 11px; font-family: 'Helvetica', 'Arial', 'DejaVu Sans', sans-serif; text-anchor: middle; fill: #ffffff" x="122.380977" y="158.310843" transform="rotate(-0 122.380977 158.310843)">3</text>
   </g>
   <g id="text_37">
    <text style="font-size: 11px; font-family: 'Helvetica', 'Arial', 'DejaVu Sans', sans-serif; text-anchor: middle; fill: #999999" x="151.176221" y="136.212167" transform="rotate(-0 151.176221 136.212167)">8.3</text>
   </g>
   <g id="text_38">
    <text style="font-weight: 700; font-size: 11px; font-family: 'Helvetica', 'Arial', 'DejaVu Sans', sans-serif; text-anchor: middle; fill: #111111" x="151.176221" y="158.310843" transform="rotate(-0 151.176221 158.310843)">10.3</text>
   </g>
   <g id="text_39">
    <text style="font-weight: 700; font-size: 11px; font-family: 'Helvetica', 'Arial', 'DejaVu Sans', sans-serif; text-anchor: middle; fill: #111111" x="204.748768" y="136.212167" transform="rotate(-0 204.748768 136.212167)">3</text>
   </g>
   <g id="text_40">
    <text style="font-size: 11px; font-family: 'Helvetica', 'Arial', 'DejaVu Sans', sans-serif; text-anchor: middle; fill: #999999" x="204.748768" y="158.310843" transform="rotate(-0 204.748768 158.310843)">1</text>
   </g>
   <g id="text_41">
    <text style="font-weight: 700; font-size: 11px; font-family: 'Helvetica', 'Arial', 'DejaVu Sans', sans-serif; text-anchor: middle; fill: #ffffff" x="60.102891" y="224.941699" transform="rotate(-0 60.102891 224.941699)">5</text>
   </g>
   <g id="text_42">
    <text style="font-weight: 700; font-size: 11px; font-family: 'Helvetica', 'Arial', 'DejaVu Sans', sans-serif; text-anchor: middle; fill: #ffffff" x="80.862253" y="224.941699" transform="rotate(-0 80.862253 224.941699)">2</text>
   </g>
   <g id="text_43">
    <text style="font-weight: 700; font-size: 11px; font-family: 'Helvetica', 'Arial', 'DejaVu Sans', sans-serif; text-anchor: middle; fill: #ffffff" x="101.621615" y="224.941699" transform="rotate(-0 101.621615 224.941699)">1</text>
   </g>
   <g id="text_44">
    <text style="font-weight: 700; font-size: 11px; font-family: 'Helvetica', 'Arial', 'DejaVu Sans', sans-serif; text-anchor: middle; fill: #ffffff" x="122.380977" y="224.941699" transform="rotate(-0 122.380977 224.941699)">0</text>
   </g>
   <g id="text_45">
    <text style="font-weight: 700; font-size: 11px; font-family: 'Helvetica', 'Arial', 'DejaVu Sans', sans-serif; text-anchor: middle; fill: #ffffff" x="60.102891" y="247.040374" transform="rotate(-0 60.102891 247.040374)">4</text>
   </g>
   <g id="text_46">
    <text style="font-weight: 700; font-size: 11px; font-family: 'Helvetica', 'Arial', 'DejaVu Sans', sans-serif; text-anchor: middle; fill: #ffffff" x="80.862253" y="247.040374" transform="rotate(-0 80.862253 247.040374)">1</text>
   </g>
   <g id="text_47">
    <text style="font-weight: 700; font-size: 11px; font-family: 'Helvetica', 'Arial', 'DejaVu Sans', sans-serif; text-anchor: middle; fill: #ffffff" x="101.621615" y="247.040374" transform="rotate(-0 101.621615 247.040374)">2</text>
   </g>
   <g id="text_48">
    <text style="font-weight: 700; font-size: 11px; font-family: 'Helvetica', 'Arial', 'DejaVu Sans', sans-serif; text-anchor: middle; fill: #ffffff" x="122.380977" y="247.040374" transform="rotate(-0 122.380977 247.040374)">1</text>
   </g>
   <g id="text_49">
    <text style="font-size: 11px; font-family: 'Helvetica', 'Arial', 'DejaVu Sans', sans-serif; text-anchor: middle; fill: #999999" x="151.176221" y="224.941699" transform="rotate(-0 151.176221 224.941699)">7.6</text>
   </g>
   <g id="text_50">
    <text style="font-weight: 700; font-size: 11px; font-family: 'Helvetica', 'Arial', 'DejaVu Sans', sans-serif; text-anchor: middle; fill: #111111" x="151.176221" y="247.040374" transform="rotate(-0 151.176221 247.040374)">9.5</text>
   </g>
   <g id="text_51">
    <text style="font-weight: 700; font-size: 11px; font-family: 'Helvetica', 'Arial', 'DejaVu Sans', sans-serif; text-anchor: middle; fill: #111111" x="204.748768" y="224.941699" transform="rotate(-0 204.748768 224.941699)">5</text>
   </g>
   <g id="text_52">
    <text style="font-size: 11px; font-family: 'Helvetica', 'Arial', 'DejaVu Sans', sans-serif; text-anchor: middle; fill: #999999" x="204.748768" y="247.040374" transform="rotate(-0 204.748768 247.040374)">4</text>
   </g>
   <g id="patch_26">
    <path d="M 151.176221 99.260684 
C 155.438503 99.260684 159.526786 98.237574 162.540675 96.416684 
C 165.554563 94.595793 167.247985 92.125788 167.247985 89.55066 
C 167.247985 86.975531 165.554563 84.505526 162.540675 82.684636 
C 159.526786 80.863745 155.438503 79.840635 151.176221 79.840635 
C 146.913939 79.840635 142.825656 80.863745 139.811768 82.684636 
C 136.797879 84.505526 135.104457 86.975531 135.104457 89.55066 
C 135.104457 92.125788 136.797879 94.595793 139.811768 96.416684 
C 142.825656 98.237574 146.913939 99.260684 151.176221 99.260684 
L 151.176221 99.260684 
z
" clip-path="url(#pbe70848044)" style="fill: none; stroke: #f2cc8f; stroke-width: 1.7; stroke-linejoin: miter"/>
   </g>
   <g id="patch_27">
    <path d="M 204.748768 99.260684 
C 209.01105 99.260684 213.099334 98.237574 216.113222 96.416684 
C 219.12711 94.595793 220.820533 92.125788 220.820533 89.55066 
C 220.820533 86.975531 219.12711 84.505526 216.113222 82.684636 
C 213.099334 80.863745 209.01105 79.840635 204.748768 79.840635 
C 200.486487 79.840635 196.398203 80.863745 193.384315 82.684636 
C 190.370427 84.505526 188.677004 86.975531 188.677004 89.55066 
C 188.677004 92.125788 190.370427 94.595793 193.384315 96.416684 
C 196.398203 98.237574 200.486487 99.260684 204.748768 99.260684 
L 204.748768 99.260684 
z
" clip-path="url(#pbe70848044)" style="fill: none; stroke: #999999; stroke-width: 1.7; stroke-linejoin: miter"/>
   </g>
   <g id="patch_28">
    <path d="M 151.176221 187.990215 
C 155.438503 187.990215 159.526786 186.967106 162.540675 185.146215 
C 165.554563 183.325324 167.247985 180.85532 167.247985 178.280191 
C 167.247985 175.705063 165.554563 173.235058 162.540675 171.414167 
C 159.526786 169.593276 155.438503 168.570167 151.176221 168.570167 
C 146.913939 168.570167 142.825656 169.593276 139.811768 171.414167 
C 136.797879 173.235058 135.104457 175.705063 135.104457 178.280191 
C 135.104457 180.85532 136.797879 183.325324 139.811768 185.146215 
C 142.825656 186.967106 146.913939 187.990215 151.176221 187.990215 
L 151.176221 187.990215 
z
" clip-path="url(#pbe70848044)" style="fill: none; stroke: #f2cc8f; stroke-width: 1.7; stroke-linejoin: miter"/>
   </g>
   <g id="patch_29">
    <path d="M 204.748768 187.990215 
C 209.01105 187.990215 213.099334 186.967106 216.113222 185.146215 
C 219.12711 183.325324 220.820533 180.85532 220.820533 178.280191 
C 220.820533 175.705063 219.12711 173.235058 216.113222 171.414167 
C 213.099334 169.593276 209.01105 168.570167 204.748768 168.570167 
C 200.486487 168.570167 196.398203 169.593276 193.384315 171.414167 
C 190.370427 173.235058 188.677004 175.705063 188.677004 178.280191 
C 188.677004 180.85532 190.370427 183.325324 193.384315 185.146215 
C 196.398203 186.967106 200.486487 187.990215 204.748768 187.990215 
L 204.748768 187.990215 
z
" clip-path="url(#pbe70848044)" style="fill: none; stroke: #3d405b; stroke-width: 1.7; stroke-linejoin: miter"/>
   </g>
   <g id="patch_30">
    <path d="M 151.176221 276.719747 
C 155.438503 276.719747 159.526786 275.696638 162.540675 273.875747 
C 165.554563 272.054856 167.247985 269.584851 167.247985 267.009723 
C 167.247985 264.434594 165.554563 261.96459 162.540675 260.143699 
C 159.526786 258.322808 155.438503 257.299699 151.176221 257.299699 
C 146.913939 257.299699 142.825656 258.322808 139.811768 260.143699 
C 136.797879 261.96459 135.104457 264.434594 135.104457 267.009723 
C 135.104457 269.584851 136.797879 272.054856 139.811768 273.875747 
C 142.825656 275.696638 146.913939 276.719747 151.176221 276.719747 
L 151.176221 276.719747 
z
" clip-path="url(#pbe70848044)" style="fill: none; stroke: #f2cc8f; stroke-width: 1.7; stroke-linejoin: miter"/>
   </g>
   <g id="patch_31">
    <path d="M 204.748768 276.719747 
C 209.01105 276.719747 213.099334 275.696638 216.113222 273.875747 
C 219.12711 272.054856 220.820533 269.584851 220.820533 267.009723 
C 220.820533 264.434594 219.12711 261.96459 216.113222 260.143699 
C 213.099334 258.322808 209.01105 257.299699 204.748768 257.299699 
C 200.486487 257.299699 196.398203 258.322808 193.384315 260.143699 
C 190.370427 261.96459 188.677004 264.434594 188.677004 267.009723 
C 188.677004 269.584851 190.370427 272.054856 193.384315 273.875747 
C 196.398203 275.696638 200.486487 276.719747 204.748768 276.719747 
L 204.748768 276.719747 
z
" clip-path="url(#pbe70848044)" style="fill: none; stroke: #81b29a; stroke-width: 1.7; stroke-linejoin: miter"/>
   </g>
   <g id="text_53">
    <text style="font-weight: 700; font-size: 11px; font-family: 'Helvetica', 'Arial', 'DejaVu Sans', sans-serif; text-anchor: middle; fill: #f2cc8f" x="151.176221" y="92.349644" transform="rotate(-0 151.176221 92.349644)">+2.5</text>
   </g>
   <g id="text_54">
    <text style="font-weight: 700; font-size: 11px; font-family: 'Helvetica', 'Arial', 'DejaVu Sans', sans-serif; text-anchor: middle; fill: #999999" x="204.748768" y="92.349644" transform="rotate(-0 204.748768 92.349644)">-1</text>
   </g>
   <g id="text_55">
    <text style="font-weight: 700; font-size: 11px; font-family: 'Helvetica', 'Arial', 'DejaVu Sans', sans-serif; text-anchor: middle; fill: #f2cc8f" x="151.176221" y="181.079176" transform="rotate(-0 151.176221 181.079176)">+1.9</text>
   </g>
   <g id="text_56">
    <text style="font-weight: 700; font-size: 11px; font-family: 'Helvetica', 'Arial', 'DejaVu Sans', sans-serif; text-anchor: middle; fill: #3d405b" x="204.748768" y="181.079176" transform="rotate(-0 204.748768 181.079176)">-2</text>
   </g>
   <g id="text_57">
    <text style="font-weight: 700; font-size: 11px; font-family: 'Helvetica', 'Arial', 'DejaVu Sans', sans-serif; text-anchor: middle; fill: #f2cc8f" x="151.176221" y="269.808707" transform="rotate(-0 151.176221 269.808707)">+1.9</text>
   </g>
   <g id="text_58">
    <text style="font-weight: 700; font-size: 11px; font-family: 'Helvetica', 'Arial', 'DejaVu Sans', sans-serif; text-anchor: middle; fill: #81b29a" x="204.748768" y="269.808707" transform="rotate(-0 204.748768 269.808707)">-1</text>
   </g>
  </g>
 </g>
 <defs>
  <clipPath id="pbe70848044">
   <rect x="7.2" y="23.924289" width="234.379895" height="254.4696"/>
  </clipPath>
 </defs>
</svg>
