<?xml version="1.0" encoding="utf-8" standalone="no"?>
<!DOCTYPE svg PUBLIC "-//W3C//DTD SVG 1.1//EN"
  "http://www.w3.org/Graphics/SVG/1.1/DTD/svg11.dtd">
<svg xmlns:xlink="http://www.w3.org/1999/xlink" width="248.779895pt" height="285.885881pt" viewBox="0 0 248.779895 285.885881" xmlns="http://www.w3.org/2000/svg" version="1.1">
 <metadata>
  <rdf:RDF xmlns:dc="http://purl.org/dc/elements/1.1/" xmlns:cc="http://creativecommons.org/ns#" xmlns:rdf="http://www.w3.org/1999/02/22-rdf-syntax-ns#">
   <cc:Work>
    <dc:type rdf:resource="http://purl.org/dc/dcmitype/StillImage"/>
    <dc:date>2026-06-24T19:14:11.697462</dc:date>
    <dc:format>image/svg+xml</dc:format>
    <dc:creator>
     <cc:Agent>
      <dc:title>Matplotlib v3.10.8, https://matplotlib.org/</dc:title>
     </cc:Agent>
    </dc:creator>
   </cc:Work>
  </rdf:RDF>
 </metadata>
 <defs>
  <style type="text/css">*{stroke-linejoin: round; stroke-linecap: butt}</style>
 </defs>
 <g id="figure_1">
  <g id="patch_1">
   <path d="M 0 285.885881 
L 248.779895 285.885881 
L 248.779895 0 
L 0 0 
z
" style="fill: #ffffff"/>
  </g>
  <g id="axes_1">
   <g id="patch_2">
    <path d="M 50.727695 86.159539 
L 69.478086 86.159539 
L 69.478086 67.409148 
L 50.727695 67.409148 
z
" clip-path="url(#paf338ec466)" style="fill: #abb0bc; stroke: #ffffff; stroke-width: 1.6; stroke-linejoin: miter"/>
   </g>
   <g id="patch_3">
    <path d="M 71.487057 86.159539 
L 90.237448 86.159539 
L 90.237448 67.409148 
L 71.487057 67.409148 
z
" clip-path="url(#paf338ec466)" style="fill: #abb0bc; stroke: #ffffff; stroke-width: 1.6; stroke-linejoin: miter"/>
   </g>
   <g id="patch_4">
    <path d="M 92.246419 86.159539 
L 110.996811 86.159539 
L 110.996811 67.409148 
L 92.246419 67.409148 
z
" clip-path="url(#paf338ec466)" style="fill: #abb0bc; stroke: #ffffff; stroke-width: 1.6; stroke-linejoin: miter"/>
   </g>
   <g id="patch_5">
    <path d="M 113.005781 86.159539 
L 131.756173 86.159539 
L 131.756173 67.409148 
L 113.005781 67.409148 
z
" clip-path="url(#paf338ec466)" style="fill: #abb0bc; stroke: #ffffff; stroke-width: 1.6; stroke-linejoin: miter"/>
   </g>
   <g id="patch_6">
    <path d="M 50.727695 108.258215 
L 69.478086 108.258215 
L 69.478086 89.507823 
L 50.727695 89.507823 
z
" clip-path="url(#paf338ec466)" style="fill: #6b7280; stroke: #ffffff; stroke-width: 1.6; stroke-linejoin: miter"/>
   </g>
   <g id="patch_7">
    <path d="M 71.487057 108.258215 
L 90.237448 108.258215 
L 90.237448 89.507823 
L 71.487057 89.507823 
z
" clip-path="url(#paf338ec466)" style="fill: #6b7280; stroke: #ffffff; stroke-width: 1.6; stroke-linejoin: miter"/>
   </g>
   <g id="patch_8">
    <path d="M 92.246419 108.258215 
L 110.996811 108.258215 
L 110.996811 89.507823 
L 92.246419 89.507823 
z
" clip-path="url(#paf338ec466)" style="fill: #6b7280; stroke: #ffffff; stroke-width: 1.6; stroke-linejoin: miter"/>
   </g>
   <g id="patch_9">
    <path d="M 113.005781 108.258215 
L 131.756173 108.258215 
L 131.756173 89.507823 
L 113.005781 89.507823 
z
" clip-path="url(#paf338ec466)" style="fill: #6b7280; stroke: #ffffff; stroke-width: 1.6; stroke-linejoin: miter"/>
   </g>
   <g id="text_1">
    <text style="font-weight: 700; font-size: 9px; font-family: 'Helvetica', 'Arial', 'DejaVu Sans', sans-serif; text-anchor: end; fill: #3f4350" x="44.700783" y="79.074421" transform="rotate(-0 44.700783 79.074421)">A</text>
   </g>
   <g id="text_2">
    <text style="font-weight: 700; font-size: 9px; font-family: 'Helvetica', 'Arial', 'DejaVu Sans', sans-serif; text-anchor: end; fill: #3f4350" x="44.700783" y="101.173097" transform="rotate(-0 44.700783 101.173097)">B</text>
   </g>
   <g id="patch_10">
    <path d="M 80.862253 60.70702 
Q 80.862253 62.389446 80.862253 62.618427 
" style="fill: none; stroke: #f2cc8f; stroke-width: 1.3; stroke-linecap: round"/>
    <path d="M 82.262253 59.818427 
L 80.862253 62.618427 
L 79.462253 59.818427 
z
" style="fill: #f2cc8f; stroke: #f2cc8f; stroke-width: 1.3; stroke-linecap: round"/>
   </g>
   <g id="text_3">
    <text style="font-weight: 700; font-size: 9px; font-family: 'Helvetica', 'Arial', 'DejaVu Sans', sans-serif; text-anchor: middle; fill: #f2cc8f" x="80.862253" y="55.488357" transform="rotate(-0 80.862253 55.488357)">steep</text>
   </g>
   <g id="patch_11">
    <path d="M 101.621615 60.70702 
Q 101.621615 62.389446 101.621615 62.618427 
" style="fill: none; stroke: #999999; stroke-width: 1.3; stroke-linecap: round"/>
    <path d="M 103.021615 59.818427 
L 101.621615 62.618427 
L 100.221615 59.818427 
z
" style="fill: #999999; stroke: #999999; stroke-width: 1.3; stroke-linecap: round"/>
   </g>
   <g id="text_4">
    <text style="font-weight: 700; font-size: 9px; font-family: 'Helvetica', 'Arial', 'DejaVu Sans', sans-serif; text-anchor: middle; fill: #999999" x="101.621615" y="55.488357" transform="rotate(-0 101.621615 55.488357)">flat</text>
   </g>
   <g id="text_5">
    <text style="font-weight: 700; font-size: 9px; font-family: 'Helvetica', 'Arial', 'DejaVu Sans', sans-serif; text-anchor: middle; fill: #f2cc8f" x="151.176221" y="60.845612" transform="rotate(-0 151.176221 60.845612)">concave</text>
   </g>
   <g id="text_6">
    <text style="font-weight: 700; font-size: 9px; font-family: 'Helvetica', 'Arial', 'DejaVu Sans', sans-serif; text-anchor: middle; fill: #999999" x="204.748768" y="60.845612" transform="rotate(-0 204.748768 60.845612)">linear</text>
   </g>
   <g id="text_7">
    <text style="font-weight: 700; font-size: 9px; font-family: 'Helvetica', 'Arial', 'DejaVu Sans', sans-serif; text-anchor: end; fill: #111111" x="44.700783" y="123.94143" transform="rotate(-0 44.700783 123.94143)">B-A</text>
   </g>
   <g id="patch_12">
    <path d="M 50.727695 193.304634 
L 69.478086 193.304634 
L 69.478086 174.554242 
L 50.727695 174.554242 
z
" clip-path="url(#paf338ec466)" style="fill: #abb0bc; stroke: #ffffff; stroke-width: 1.6; stroke-linejoin: miter"/>
   </g>
   <g id="patch_13">
    <path d="M 71.487057 193.304634 
L 90.237448 193.304634 
L 90.237448 174.554242 
L 71.487057 174.554242 
z
" clip-path="url(#paf338ec466)" style="fill: #abb0bc; stroke: #ffffff; stroke-width: 1.6; stroke-linejoin: miter"/>
   </g>
   <g id="patch_14">
    <path d="M 92.246419 193.304634 
L 110.996811 193.304634 
L 110.996811 174.554242 
L 92.246419 174.554242 
z
" clip-path="url(#paf338ec466)" style="fill: #abb0bc; stroke: #ffffff; stroke-width: 1.6; stroke-linejoin: miter"/>
   </g>
   <g id="patch_15">
    <path d="M 113.005781 193.304634 
L 131.756173 193.304634 
L 131.756173 174.554242 
L 113.005781 174.554242 
z
" clip-path="url(#paf338ec466)" style="fill: #abb0bc; stroke: #ffffff; stroke-width: 1.6; stroke-linejoin: miter"/>
   </g>
   <g id="patch_16">
    <path d="M 50.727695 215.40331 
L 69.478086 215.40331 
L 69.478086 196.652918 
L 50.727695 196.652918 
z
" clip-path="url(#paf338ec466)" style="fill: #6b7280; stroke: #ffffff; stroke-width: 1.6; stroke-linejoin: miter"/>
   </g>
   <g id="patch_17">
    <path d="M 71.487057 215.40331 
L 90.237448 215.40331 
L 90.237448 196.652918 
L 71.487057 196.652918 
z
" clip-path="url(#paf338ec466)" style="fill: #6b7280; stroke: #ffffff; stroke-width: 1.6; stroke-linejoin: miter"/>
   </g>
   <g id="patch_18">
    <path d="M 92.246419 215.40331 
L 110.996811 215.40331 
L 110.996811 196.652918 
L 92.246419 196.652918 
z
" clip-path="url(#paf338ec466)" style="fill: #6b7280; stroke: #ffffff; stroke-width: 1.6; stroke-linejoin: miter"/>
   </g>
   <g id="patch_19">
    <path d="M 113.005781 215.40331 
L 131.756173 215.40331 
L 131.756173 196.652918 
L 113.005781 196.652918 
z
" clip-path="url(#paf338ec466)" style="fill: #6b7280; stroke: #ffffff; stroke-width: 1.6; stroke-linejoin: miter"/>
   </g>
   <g id="text_8">
    <text style="font-weight: 700; font-size: 9px; font-family: 'Helvetica', 'Arial', 'DejaVu Sans', sans-serif; text-anchor: end; fill: #3f4350" x="44.700783" y="186.219516" transform="rotate(-0 44.700783 186.219516)">A</text>
   </g>
   <g id="text_9">
    <text style="font-weight: 700; font-size: 9px; font-family: 'Helvetica', 'Arial', 'DejaVu Sans', sans-serif; text-anchor: end; fill: #3f4350" x="44.700783" y="208.318192" transform="rotate(-0 44.700783 208.318192)">B</text>
   </g>
   <g id="patch_20">
    <path d="M 60.102891 167.852115 
Q 60.102891 169.534541 60.102891 169.763522 
" style="fill: none; stroke: #f2cc8f; stroke-width: 1.3; stroke-linecap: round"/>
    <path d="M 61.502891 166.963522 
L 60.102891 169.763522 
L 58.702891 166.963522 
z
" style="fill: #f2cc8f; stroke: #f2cc8f; stroke-width: 1.3; stroke-linecap: round"/>
   </g>
   <g id="text_10">
    <text style="font-weight: 700; font-size: 9px; font-family: 'Helvetica', 'Arial', 'DejaVu Sans', sans-serif; text-anchor: middle; fill: #f2cc8f" x="60.102891" y="162.633452" transform="rotate(-0 60.102891 162.633452)">steep</text>
   </g>
   <g id="patch_21">
    <path d="M 122.380977 167.852115 
Q 122.380977 169.534541 122.380977 169.763522 
" style="fill: none; stroke: #999999; stroke-width: 1.3; stroke-linecap: round"/>
    <path d="M 123.780977 166.963522 
L 122.380977 169.763522 
L 120.980977 166.963522 
z
" style="fill: #999999; stroke: #999999; stroke-width: 1.3; stroke-linecap: round"/>
   </g>
   <g id="text_11">
    <text style="font-weight: 700; font-size: 9px; font-family: 'Helvetica', 'Arial', 'DejaVu Sans', sans-serif; text-anchor: middle; fill: #999999" x="122.380977" y="162.633452" transform="rotate(-0 122.380977 162.633452)">flat</text>
   </g>
   <g id="text_12">
    <text style="font-weight: 700; font-size: 9px; font-family: 'Helvetica', 'Arial', 'DejaVu Sans', sans-serif; text-anchor: middle; fill: #f2cc8f" x="151.176221" y="167.990707" transform="rotate(-0 151.176221 167.990707)">concave</text>
   </g>
   <g id="text_13">
    <text style="font-weight: 700; font-size: 9px; font-family: 'Helvetica', 'Arial', 'DejaVu Sans', sans-serif; text-anchor: middle; fill: #999999" x="204.748768" y="167.990707" transform="rotate(-0 204.748768 167.990707)">linear</text>
   </g>
   <g id="text_14">
    <text style="font-weight: 700; font-size: 9px; font-family: 'Helvetica', 'Arial', 'DejaVu Sans', sans-serif; text-anchor: end; fill: #111111" x="44.700783" y="231.086525" transform="rotate(-0 44.700783 231.086525)">B-A</text>
   </g>
   <g id="text_15">
    <text style="font-weight: 700; font-size: 14.95px; font-family: 'Helvetica', 'Arial', 'DejaVu Sans', sans-serif; text-anchor: middle; fill: #111111" x="124.389947" y="18.216281" transform="rotate(-0 124.389947 18.216281)">H2 · Steep-vs-flat</text>
   </g>
   <g id="text_16">
    <text style="font-weight: 700; font-size: 11px; font-family: 'Helvetica', 'Arial', 'DejaVu Sans', sans-serif; text-anchor: middle; fill: #ffffff" x="60.102891" y="79.583328" transform="rotate(-0 60.102891 79.583328)">2</text>
   </g>
   <g id="text_17">
    <text style="font-weight: 700; font-size: 11px; font-family: 'Helvetica', 'Arial', 'DejaVu Sans', sans-serif; text-anchor: middle; fill: #ffffff" x="80.862253" y="79.583328" transform="rotate(-0 80.862253 79.583328)">0</text>
   </g>
   <g id="text_18">
    <text style="font-weight: 700; font-size: 11px; font-family: 'Helvetica', 'Arial', 'DejaVu Sans', sans-serif; text-anchor: middle; fill: #ffffff" x="101.621615" y="79.583328" transform="rotate(-0 101.621615 79.583328)">5</text>
   </g>
   <g id="text_19">
    <text style="font-weight: 700; font-size: 11px; font-family: 'Helvetica', 'Arial', 'DejaVu Sans', sans-serif; text-anchor: middle; fill: #ffffff" x="122.380977" y="79.583328" transform="rotate(-0 122.380977 79.583328)">2</text>
   </g>
   <g id="text_20">
    <text style="font-weight: 700; font-size: 11px; font-family: 'Helvetica', 'Arial', 'DejaVu Sans', sans-serif; text-anchor: middle; fill: #ffffff" x="60.102891" y="101.682004" transform="rotate(-0 60.102891 101.682004)">2</text>
   </g>
   <g id="text_21">
    <text style="font-weight: 700; font-size: 11px; font-family: 'Helvetica', 'Arial', 'DejaVu Sans', sans-serif; text-anchor: middle; fill: #ffffff" x="80.862253" y="101.682004" transform="rotate(-0 80.862253 101.682004)">1</text>
   </g>
   <g id="text_22">
    <text style="font-weight: 700; font-size: 11px; font-family: 'Helvetica', 'Arial', 'DejaVu Sans', sans-serif; text-anchor: middle; fill: #ffffff" x="101.621615" y="101.682004" transform="rotate(-0 101.621615 101.682004)">4</text>
   </g>
   <g id="text_23">
    <text style="font-weight: 700; font-size: 11px; font-family: 'Helvetica', 'Arial', 'DejaVu Sans', sans-serif; text-anchor: middle; fill: #ffffff" x="122.380977" y="101.682004" transform="rotate(-0 122.380977 101.682004)">2</text>
   </g>
   <g id="text_24">
    <text style="font-size: 11px; font-family: 'Helvetica', 'Arial', 'DejaVu Sans', sans-serif; text-anchor: middle; fill: #999999" x="151.176221" y="79.583328" transform="rotate(-0 151.176221 79.583328)">8.3</text>
   </g>
   <g id="text_25">
    <text style="font-weight: 700; font-size: 11px; font-family: 'Helvetica', 'Arial', 'DejaVu Sans', sans-serif; text-anchor: middle; fill: #111111" x="151.176221" y="101.682004" transform="rotate(-0 151.176221 101.682004)">10.2</text>
   </g>
   <g id="text_26">
    <text style="font-size: 11px; font-family: 'Helvetica', 'Arial', 'DejaVu Sans', sans-serif; text-anchor: middle; fill: #999999" x="204.748768" y="79.583328" transform="rotate(-0 204.748768 79.583328)">9</text>
   </g>
   <g id="text_27">
    <text style="font-size: 11px; font-family: 'Helvetica', 'Arial', 'DejaVu Sans', sans-serif; text-anchor: middle; fill: #999999" x="204.748768" y="101.682004" transform="rotate(-0 204.748768 101.682004)">9</text>
   </g>
   <g id="text_28">
    <text style="font-weight: 700; font-size: 11px; font-family: 'Helvetica', 'Arial', 'DejaVu Sans', sans-serif; text-anchor: middle; fill: #ffffff" x="60.102891" y="186.728422" transform="rotate(-0 60.102891 186.728422)">0</text>
   </g>
   <g id="text_29">
    <text style="font-weight: 700; font-size: 11px; font-family: 'Helvetica', 'Arial', 'DejaVu Sans', sans-serif; text-anchor: middle; fill: #ffffff" x="80.862253" y="186.728422" transform="rotate(-0 80.862253 186.728422)">3</text>
   </g>
   <g id="text_30">
    <text style="font-weight: 700; font-size: 11px; font-family: 'Helvetica', 'Arial', 'DejaVu Sans', sans-serif; text-anchor: middle; fill: #ffffff" x="101.621615" y="186.728422" transform="rotate(-0 101.621615 186.728422)">3</text>
   </g>
   <g id="text_31">
    <text style="font-weight: 700; font-size: 11px; font-family: 'Helvetica', 'Arial', 'DejaVu Sans', sans-serif; text-anchor: middle; fill: #ffffff" x="122.380977" y="186.728422" transform="rotate(-0 122.380977 186.728422)">5</text>
   </g>
   <g id="text_32">
    <text style="font-weight: 700; font-size: 11px; font-family: 'Helvetica', 'Arial', 'DejaVu Sans', sans-serif; text-anchor: middle; fill: #ffffff" x="60.102891" y="208.827098" transform="rotate(-0 60.102891 208.827098)">1</text>
   </g>
   <g id="text_33">
    <text style="font-weight: 700; font-size: 11px; font-family: 'Helvetica', 'Arial', 'DejaVu Sans', sans-serif; text-anchor: middle; fill: #ffffff" x="80.862253" y="208.827098" transform="rotate(-0 80.862253 208.827098)">3</text>
   </g>
   <g id="text_34">
    <text style="font-weight: 700; font-size: 11px; font-family: 'Helvetica', 'Arial', 'DejaVu Sans', sans-serif; text-anchor: middle; fill: #ffffff" x="101.621615" y="208.827098" transform="rotate(-0 101.621615 208.827098)">3</text>
   </g>
   <g id="text_35">
    <text style="font-weight: 700; font-size: 11px; font-family: 'Helvetica', 'Arial', 'DejaVu Sans', sans-serif; text-anchor: middle; fill: #ffffff" x="122.380977" y="208.827098" transform="rotate(-0 122.380977 208.827098)">4</text>
   </g>
   <g id="text_36">
    <text style="font-size: 11px; font-family: 'Helvetica', 'Arial', 'DejaVu Sans', sans-serif; text-anchor: middle; fill: #999999" x="151.176221" y="186.728422" transform="rotate(-0 151.176221 186.728422)">10.3</text>
   </g>
   <g id="text_37">
    <text style="font-weight: 700; font-size: 11px; font-family: 'Helvetica', 'Arial', 'DejaVu Sans', sans-serif; text-anchor: middle; fill: #111111" x="151.176221" y="208.827098" transform="rotate(-0 151.176221 208.827098)">12.2</text>
   </g>
   <g id="text_38">
    <text style="font-size: 11px; font-family: 'Helvetica', 'Arial', 'DejaVu Sans', sans-serif; text-anchor: middle; fill: #999999" x="204.748768" y="186.728422" transform="rotate(-0 204.748768 186.728422)">11</text>
   </g>
   <g id="text_39">
    <text style="font-size: 11px; font-family: 'Helvetica', 'Arial', 'DejaVu Sans', sans-serif; text-anchor: middle; fill: #999999" x="204.748768" y="208.827098" transform="rotate(-0 204.748768 208.827098)">11</text>
   </g>
   <g id="patch_22">
    <path d="M 151.176221 131.361376 
C 155.438503 131.361376 159.526786 130.338267 162.540675 128.517376 
C 165.554563 126.696485 167.247985 124.22648 167.247985 121.651352 
C 167.247985 119.076223 165.554563 116.606219 162.540675 114.785328 
C 159.526786 112.964437 155.438503 111.941328 151.176221 111.941328 
C 146.913939 111.941328 142.825656 112.964437 139.811768 114.785328 
C 136.797879 116.606219 135.104457 119.076223 135.104457 121.651352 
C 135.104457 124.22648 136.797879 126.696485 139.811768 128.517376 
C 142.825656 130.338267 146.913939 131.361376 151.176221 131.361376 
L 151.176221 131.361376 
z
" clip-path="url(#paf338ec466)" style="fill: none; stroke: #f2cc8f; stroke-width: 1.7; stroke-linejoin: miter"/>
   </g>
   <g id="patch_23">
    <path d="M 204.748768 131.361376 
C 209.01105 131.361376 213.099334 130.338267 216.113222 128.517376 
C 219.12711 126.696485 220.820533 124.22648 220.820533 121.651352 
C 220.820533 119.076223 219.12711 116.606219 216.113222 114.785328 
C 213.099334 112.964437 209.01105 111.941328 204.748768 111.941328 
C 200.486487 111.941328 196.398203 112.964437 193.384315 114.785328 
C 190.370427 116.606219 188.677004 119.076223 188.677004 121.651352 
C 188.677004 124.22648 190.370427 126.696485 193.384315 128.517376 
C 196.398203 130.338267 200.486487 131.361376 204.748768 131.361376 
L 204.748768 131.361376 
z
" clip-path="url(#paf338ec466)" style="fill: none; stroke: #999999; stroke-width: 1.7; stroke-linejoin: miter"/>
   </g>
   <g id="patch_24">
    <path d="M 151.176221 238.506471 
C 155.438503 238.506471 159.526786 237.483361 162.540675 235.66247 
C 165.554563 233.84158 167.247985 231.371575 167.247985 228.796447 
C 167.247985 226.221318 165.554563 223.751313 162.540675 221.930423 
C 159.526786 220.109532 155.438503 219.086422 151.176221 219.086422 
C 146.913939 219.086422 142.825656 220.109532 139.811768 221.930423 
C 136.797879 223.751313 135.104457 226.221318 135.104457 228.796447 
C 135.104457 231.371575 136.797879 233.84158 139.811768 235.66247 
C 142.825656 237.483361 146.913939 238.506471 151.176221 238.506471 
L 151.176221 238.506471 
z
" clip-path="url(#paf338ec466)" style="fill: none; stroke: #f2cc8f; stroke-width: 1.7; stroke-linejoin: miter"/>
   </g>
   <g id="patch_25">
    <path d="M 204.748768 238.506471 
C 209.01105 238.506471 213.099334 237.483361 216.113222 235.66247 
C 219.12711 233.84158 220.820533 231.371575 220.820533 228.796447 
C 220.820533 226.221318 219.12711 223.751313 216.113222 221.930423 
C 213.099334 220.109532 209.01105 219.086422 204.748768 219.086422 
C 200.486487 219.086422 196.398203 220.109532 193.384315 221.930423 
C 190.370427 223.751313 188.677004 226.221318 188.677004 228.796447 
C 188.677004 231.371575 190.370427 233.84158 193.384315 235.66247 
C 196.398203 237.483361 200.486487 238.506471 204.748768 238.506471 
L 204.748768 238.506471 
z
" clip-path="url(#paf338ec466)" style="fill: none; stroke: #999999; stroke-width: 1.7; stroke-linejoin: miter"/>
   </g>
   <g id="text_40">
    <g id="patch_26">
     <path d="M 87.42489 98.711085 
C 89.119724 98.711085 90.74537 98.03772 91.943799 96.839292 
C 93.142228 95.640863 93.815593 94.015216 93.815593 92.320382 
C 93.815593 90.625548 93.142228 88.999901 91.943799 87.801473 
C 90.74537 86.603044 89.119724 85.929679 87.42489 85.929679 
C 85.730055 85.929679 84.104409 86.603044 82.90598 87.801473 
C 81.707551 88.999901 81.034187 90.625548 81.034187 92.320382 
C 81.034187 94.015216 81.707551 95.640863 82.90598 96.839292 
C 84.104409 98.03772 85.730055 98.711085 87.42489 98.711085 
z
" style="fill: #ffffff; stroke: #f2cc8f; stroke-width: 1.3; stroke-linejoin: miter"/>
    </g>
    <text style="font-weight: 700; font-size: 9px; font-family: 'Helvetica', 'Arial', 'DejaVu Sans', sans-serif; text-anchor: middle; fill: #f2cc8f" x="87.42489" y="94.61046" transform="rotate(-0 87.42489 94.61046)">+1</text>
   </g>
   <g id="text_41">
    <g id="patch_27">
     <path d="M 108.184252 97.746398 
C 109.623248 97.746398 111.0035 97.174678 112.021024 96.157155 
C 113.038548 95.139631 113.610267 93.759378 113.610267 92.320382 
C 113.610267 90.881386 113.038548 89.501134 112.021024 88.48361 
C 111.0035 87.466086 109.623248 86.894366 108.184252 86.894366 
C 106.745256 86.894366 105.365003 87.466086 104.347479 88.48361 
C 103.329955 89.501134 102.758236 90.881386 102.758236 92.320382 
C 102.758236 93.759378 103.329955 95.139631 104.347479 96.157155 
C 105.365003 97.174678 106.745256 97.746398 108.184252 97.746398 
z
" style="fill: #ffffff; stroke: #999999; stroke-width: 1.3; stroke-linejoin: miter"/>
    </g>
    <text style="font-weight: 700; font-size: 9px; font-family: 'Helvetica', 'Arial', 'DejaVu Sans', sans-serif; text-anchor: middle; fill: #999999" x="108.184252" y="94.61046" transform="rotate(-0 108.184252 94.61046)">-1</text>
   </g>
   <g id="text_42">
    <text style="font-weight: 700; font-size: 11px; font-family: 'Helvetica', 'Arial', 'DejaVu Sans', sans-serif; text-anchor: middle; fill: #f2cc8f" x="151.176221" y="124.450336" transform="rotate(-0 151.176221 124.450336)">+1.9</text>
   </g>
   <g id="text_43">
    <text style="font-weight: 700; font-size: 11px; font-family: 'Helvetica', 'Arial', 'DejaVu Sans', sans-serif; text-anchor: middle; fill: #999999" x="204.748768" y="124.450336" transform="rotate(-0 204.748768 124.450336)">0</text>
   </g>
   <g id="text_44">
    <g id="patch_28">
     <path d="M 66.665528 205.85618 
C 68.360362 205.85618 69.986008 205.182815 71.184437 203.984386 
C 72.382866 202.785958 73.056231 201.160311 73.056231 199.465477 
C 73.056231 197.770643 72.382866 196.144996 71.184437 194.946567 
C 69.986008 193.748139 68.360362 193.074774 66.665528 193.074774 
C 64.970693 193.074774 63.345047 193.748139 62.146618 194.946567 
C 60.948189 196.144996 60.274824 197.770643 60.274824 199.465477 
C 60.274824 201.160311 60.948189 202.785958 62.146618 203.984386 
C 63.345047 205.182815 64.970693 205.85618 66.665528 205.85618 
z
" style="fill: #ffffff; stroke: #f2cc8f; stroke-width: 1.3; stroke-linejoin: miter"/>
    </g>
    <text style="font-weight: 700; font-size: 9px; font-family: 'Helvetica', 'Arial', 'DejaVu Sans', sans-serif; text-anchor: middle; fill: #f2cc8f" x="66.665528" y="201.755555" transform="rotate(-0 66.665528 201.755555)">+1</text>
   </g>
   <g id="text_45">
    <g id="patch_29">
     <path d="M 128.943614 204.891492 
C 130.38261 204.891492 131.762862 204.319773 132.780386 203.302249 
C 133.79791 202.284725 134.36963 200.904473 134.36963 199.465477 
C 134.36963 198.026481 133.79791 196.646228 132.780386 195.628704 
C 131.762862 194.61118 130.38261 194.039461 128.943614 194.039461 
C 127.504618 194.039461 126.124365 194.61118 125.106841 195.628704 
C 124.089318 196.646228 123.517598 198.026481 123.517598 199.465477 
C 123.517598 200.904473 124.089318 202.284725 125.106841 203.302249 
C 126.124365 204.319773 127.504618 204.891492 128.943614 204.891492 
z
" style="fill: #ffffff; stroke: #999999; stroke-width: 1.3; stroke-linejoin: miter"/>
    </g>
    <text style="font-weight: 700; font-size: 9px; font-family: 'Helvetica', 'Arial', 'DejaVu Sans', sans-serif; text-anchor: middle; fill: #999999" x="128.943614" y="201.755555" transform="rotate(-0 128.943614 201.755555)">-1</text>
   </g>
   <g id="text_46">
    <text style="font-weight: 700; font-size: 11px; font-family: 'Helvetica', 'Arial', 'DejaVu Sans', sans-serif; text-anchor: middle; fill: #f2cc8f" x="151.176221" y="231.595431" transform="rotate(-0 151.176221 231.595431)">+1.9</text>
   </g>
   <g id="text_47">
    <text style="font-weight: 700; font-size: 11px; font-family: 'Helvetica', 'Arial', 'DejaVu Sans', sans-serif; text-anchor: middle; fill: #999999" x="204.748768" y="231.595431" transform="rotate(-0 204.748768 231.595431)">0</text>
   </g>
  </g>
 </g>
 <defs>
  <clipPath id="paf338ec466">
   <rect x="7.2" y="24.216281" width="234.379895" height="254.4696"/>
  </clipPath>
 </defs>
</svg>
